<svg xmlns="http://www.w3.org/2000/svg" xmlns:xlink="http://www.w3.org/1999/xlink" viewBox="0 0 10 10"><defs><style>.cls-1{fill:none;}.cls-2{clip-path:url(#clip-path);}.cls-3{fill:#f2f2f2;}</style><clipPath id="clip-path"><rect class="cls-1" width="10" height="10"/></clipPath></defs><g id="Layer_2" data-name="Layer 2"><g id="Layer_1-2" data-name="Layer 1"><g class="cls-2"><path class="cls-3" d="M5,10A1.26,1.26,0,0,0,6.25,8.75H3.75A1.26,1.26,0,0,0,5,10ZM5.62.69a.57.57,0,0,0,0-.26A.5.5,0,0,0,5.46.21.65.65,0,0,0,5.25.05a.65.65,0,0,0-.5,0,.65.65,0,0,0-.21.16.5.5,0,0,0-.13.22.57.57,0,0,0,0,.26,3.1,3.1,0,0,0-2.5,3.06c0,.69-.32,3.75-1.26,4.37H9.38C8.44,7.5,8.12,4.44,8.12,3.75A3.12,3.12,0,0,0,5.62.69Z"/></g></g></g></svg>