<svg xmlns="http://www.w3.org/2000/svg" xmlns:xlink="http://www.w3.org/1999/xlink" viewBox="0 0 12 12"><defs><style>.cls-1{fill:none;}.cls-2{clip-path:url(#clip-path);}.cls-3{fill:#333338;}.cls-4{fill:#222;}</style><clipPath id="clip-path"><rect class="cls-1" width="12" height="12"/></clipPath></defs><g id="Layer_2" data-name="Layer 2"><g id="Layer_1-2" data-name="Layer 1"><g class="cls-2"><path class="cls-3" d="M6.75,5.25A.75.75,0,0,1,7.5,4.5h3.75V6H7.5a.75.75,0,0,1-.75-.75Zm-6,1.5h3a.75.75,0,0,1,0,1.5h-3Z"/><path class="cls-4" d="M2.62,0a.39.39,0,0,1,.27.11A.39.39,0,0,1,3,.38V.75H9V.38A.39.39,0,0,1,9.11.11.39.39,0,0,1,9.38,0a.38.38,0,0,1,.26.11.39.39,0,0,1,.11.27V.75h.75A1.5,1.5,0,0,1,12,2.25V10.5A1.5,1.5,0,0,1,10.5,12h-9A1.5,1.5,0,0,1,0,10.5V2.25A1.5,1.5,0,0,1,1.5.75h.75V.38A.39.39,0,0,1,2.36.11.38.38,0,0,1,2.62,0ZM.75,3v7.5a.75.75,0,0,0,.75.75h9a.75.75,0,0,0,.75-.75V3Z"/></g></g></g></svg>